<?xml version="1.0" encoding="UTF-8" standalone="no"?>
<!-- Created with Inkscape (http://www.inkscape.org/) -->

<svg
   version="1.1"
   id="svg1"
   width="1961.0382"
   height="1609.9113"
   viewBox="0 0 1961.0382 1609.9112"
   xmlns="http://www.w3.org/2000/svg"
   xmlns:svg="http://www.w3.org/2000/svg">
  <defs
     id="defs1" />
  <g
     id="g1"
     transform="translate(-384.81433,-560.37777)">
    <g
       id="g14"
       transform="translate(-7.9972437,147.40402)">
      <path
         style="fill:#ffe85e;fill-opacity:1;stroke:#ffffff;stroke-width:100.365;stroke-linecap:round;stroke-linejoin:miter;stroke-dasharray:none;stroke-opacity:1;paint-order:fill markers stroke"
         d="m 712.16182,1585.045 -228.88937,366.8881 791.77805,-0.087"
         id="path1" />
      <path
         style="fill:#ffe85e;fill-opacity:1;stroke:#ffffff;stroke-width:100.365;stroke-linecap:round;stroke-linejoin:miter;stroke-dasharray:none;stroke-opacity:1;paint-order:fill markers stroke"
         d="m 2034.4995,1585.1147 228.8893,366.8881 -791.778,-0.087"
         id="path1-1" />
      <path
         style="fill:#ffe85e;fill-opacity:1;stroke:#ffffff;stroke-width:100.365;stroke-linecap:round;stroke-linejoin:miter;stroke-dasharray:none;stroke-opacity:1;paint-order:fill markers stroke"
         d="m 1214.8489,1751.7337 -0.7838,76.026 156.7547,130.1064 159.106,-130.1064 -0.7838,-72.1071"
         id="path2" />
      <path
         style="fill:#ffe85e;fill-opacity:1;stroke:#ffffff;stroke-width:100.365;stroke-linecap:round;stroke-linejoin:miter;stroke-dasharray:none;stroke-opacity:1;paint-order:fill markers stroke"
         d="m 1213.2813,1783.8684 315.077,0.7838"
         id="path3" />
      <path
         style="fill:#ffe85e;fill-opacity:1;stroke:#ffffff;stroke-width:100.365;stroke-linecap:round;stroke-linejoin:miter;stroke-dasharray:none;stroke-opacity:1;paint-order:fill markers stroke"
         d="m 1196.8221,1495.4398 383.2652,282.1584 192.8083,-113.6471 2.3513,-210.8351 -195.1596,-112.8634 -206.9162,144.9981"
         id="path4" />
      <path
         style="fill:#ffe85e;fill-opacity:1;stroke:#ffffff;stroke-width:100.365;stroke-linecap:round;stroke-linejoin:miter;stroke-dasharray:none;stroke-opacity:1;paint-order:fill markers stroke"
         d="m 1549.5201,1626.3299 -384.049,-286.861 -195.94332,115.2147 v 209.2675 l 195.15962,115.2147 194.3758,-139.5117"
         id="path5" />
      <path
         style="fill:#ffe85e;fill-opacity:1;stroke:#ffffff;stroke-width:100.365;stroke-linecap:round;stroke-linejoin:miter;stroke-dasharray:none;stroke-opacity:1;paint-order:fill markers stroke"
         d="m 1244.7591,1387.7457 -1.1084,-127.4687 67.6138,-91.9991 125.2518,0.5542 64.8427,89.7823 -0.5542,127.4686"
         id="path6" />
      <path
         style="fill:#ffe85e;fill-opacity:1;stroke:#ffffff;stroke-width:100.365;stroke-linecap:round;stroke-linejoin:miter;stroke-dasharray:none;stroke-opacity:1;paint-order:fill markers stroke"
         d="m 1246.9759,1364.4688 247.7326,-1.6626"
         id="path7" />
      <path
         style="fill:#ffe85e;fill-opacity:1;stroke:#ffffff;stroke-width:100.365;stroke-linecap:round;stroke-linejoin:miter;stroke-dasharray:none;stroke-opacity:1;paint-order:fill markers stroke"
         d="M 938.83433,1201.5306 1372.2278,507.65776 1803.4043,1197.0969"
         id="path8" />
      <path
         style="fill:#ffe85e;fill-opacity:1;stroke:#ffffff;stroke-width:100.365;stroke-linecap:round;stroke-linejoin:miter;stroke-dasharray:none;stroke-opacity:1;paint-order:fill markers stroke"
         d="m 1068.5198,995.36391 h 593.0064"
         id="path9" />
      <path
         style="fill:#ffe85e;fill-opacity:1;stroke:#ffffff;stroke-width:100.365;stroke-linecap:round;stroke-linejoin:miter;stroke-dasharray:none;stroke-opacity:1;paint-order:fill markers stroke"
         d="m 1592.2358,1331.6311 c 0,0 272.6783,-82.8959 415.7918,-112.0796 24.2583,-4.9468 49.7229,-15.6702 73.6747,-9.4053 20.7767,5.4344 42.9417,18.8094 51.7291,38.4049 6.0103,13.4027 -0.1276,29.7004 -3.9189,43.8913 -20.7279,77.584 -49.3526,157.2689 -101.1068,218.6728 -27.6018,32.7482 -64.9485,60.0577 -105.8094,72.891 -46.1126,14.4827 -144.9981,0.7837 -144.9981,0.7837"
         id="path10" />
      <path
         style="fill:#ffe85e;fill-opacity:1;stroke:#ffffff;stroke-width:100.365;stroke-linecap:round;stroke-linejoin:miter;stroke-dasharray:none;stroke-opacity:1;paint-order:fill markers stroke"
         d="m 1153.4526,1330.4827 c 0,0 -272.67829,-82.8959 -415.79175,-112.0796 -24.2583,-4.9468 -49.7229,-15.6702 -73.6747,-9.4053 -20.7767,5.4344 -42.9417,18.8094 -51.7291,38.4049 -6.0103,13.4027 0.1276,29.7004 3.9189,43.8913 20.7279,77.584 49.3526,157.2689 101.1068,218.6728 27.6018,32.7482 64.9485,60.0577 105.80936,72.891 46.1126,14.4827 144.99811,0.7837 144.99811,0.7837"
         id="path10-3" />
    </g>
    <g
       id="g15"
       transform="translate(-2629.0809,155.29955)">
      <path
         style="stroke-linecap:round;paint-order:stroke fill markers"
         d="m 3306.2313,1561.3998 -245.2186,399.0099 837.6854,-0.3691 c -57.3648,-48.164 0,0 -57.3648,-48.164 l -693.4983,0.3611 200.6451,-316.4765 z"
         id="path1-4" />
      <path
         style="stroke-linecap:round;paint-order:stroke fill markers"
         d="m 4682.5972,1562.5935 245.2186,399.0099 -837.6854,-0.3691 c 57.3648,-48.164 0,0 57.3648,-48.164 l 693.4984,0.3611 -200.6452,-316.4765 z"
         id="path1-1-5" />
      <path
         style="fill:none;stroke:#000000;stroke-width:48.165;stroke-linecap:round;stroke-linejoin:miter;stroke-dasharray:none;stroke-opacity:1;paint-order:stroke fill markers"
         d="m 3836.0003,1736.1239 -0.7838,76.026 156.7547,130.1064 159.106,-130.1064 -0.7838,-72.1071"
         id="path2-2" />
      <path
         style="fill:none;stroke:#000000;stroke-width:48.165;stroke-linecap:round;stroke-linejoin:miter;stroke-dasharray:none;stroke-opacity:1;paint-order:stroke fill markers"
         d="m 3834.4327,1768.2586 315.077,0.7838"
         id="path3-5" />
      <path
         style="fill:none;stroke:#000000;stroke-width:48.165;stroke-linecap:round;stroke-linejoin:miter;stroke-dasharray:none;stroke-opacity:1;paint-order:stroke fill markers"
         d="m 3817.9735,1479.83 383.2652,282.1584 192.8083,-113.6471 2.3513,-210.8351 -195.1596,-112.8634 -206.9162,144.9981"
         id="path4-4" />
      <path
         style="fill:none;stroke:#000000;stroke-width:48.165;stroke-linecap:round;stroke-linejoin:miter;stroke-dasharray:none;stroke-opacity:1;paint-order:stroke fill markers"
         d="m 4170.6715,1610.7201 -384.049,-286.861 -195.9433,115.2147 v 209.2675 l 195.1596,115.2147 194.3758,-139.5117"
         id="path5-7" />
      <path
         style="fill:none;stroke:#000000;stroke-width:48.165;stroke-linecap:round;stroke-linejoin:miter;stroke-dasharray:none;stroke-opacity:1;paint-order:stroke fill markers"
         d="m 3865.9105,1372.1359 -1.1084,-127.4687 67.6138,-91.9991 125.2518,0.5542 64.8427,89.7823 -0.5542,127.4686"
         id="path6-4" />
      <path
         style="fill:none;stroke:#000000;stroke-width:48.165;stroke-linecap:round;stroke-linejoin:miter;stroke-dasharray:none;stroke-opacity:1;paint-order:stroke fill markers"
         d="m 3868.1273,1348.859 247.7326,-1.6626"
         id="path7-4" />
      <path
         id="path8-3"
         style="stroke-linecap:round;paint-order:stroke fill markers"
         d="m 3993.3662,446.60891 -454.8632,730.01369 47.8242,12.586 407.0644,-651.72078 408.0029,655.20208 52.0048,-13.7825 z" />
      <path
         style="fill:none;stroke:#000000;stroke-width:48.165;stroke-linecap:round;stroke-linejoin:miter;stroke-dasharray:none;stroke-opacity:1;paint-order:stroke fill markers"
         d="m 3689.6712,979.75407 h 593.0064"
         id="path9-0" />
      <path
         style="fill:none;stroke:#000000;stroke-width:48.165;stroke-linecap:round;stroke-linejoin:miter;stroke-dasharray:none;stroke-opacity:1;paint-order:stroke fill markers"
         d="m 4213.3872,1316.0213 c 0,0 272.6783,-82.8959 415.7918,-112.0796 24.2583,-4.9468 49.7229,-15.6702 73.6747,-9.4053 20.7767,5.4344 42.9417,18.8094 51.7291,38.4049 6.0103,13.4027 -0.1276,29.7004 -3.9189,43.8913 -20.7279,77.584 -49.3526,157.2689 -101.1068,218.6728 -27.6018,32.7482 -64.9485,60.0577 -105.8094,72.891 -46.1126,14.4827 -144.9981,0.7837 -144.9981,0.7837"
         id="path10-7" />
      <path
         style="fill:none;stroke:#000000;stroke-width:48.165;stroke-linecap:round;stroke-linejoin:miter;stroke-dasharray:none;stroke-opacity:1;paint-order:stroke fill markers"
         d="m 3774.604,1314.8729 c 0,0 -272.6783,-82.8959 -415.7917,-112.0796 -24.2583,-4.9468 -49.7229,-15.6702 -73.6747,-9.4053 -20.7768,5.4344 -42.9418,18.8094 -51.7291,38.4049 -6.0104,13.4027 0.1276,29.7004 3.9189,43.8913 20.7279,77.584 49.3526,157.2689 101.1067,218.6728 27.6019,32.7482 64.9486,60.0577 105.8094,72.891 46.1126,14.4827 144.9981,0.7837 144.9981,0.7837"
         id="path10-3-8" />
      <circle
         style="fill:#000000;fill-opacity:1;stroke:none;stroke-width:151.72;stroke-linecap:round;stroke-linejoin:miter;stroke-dasharray:none;stroke-opacity:1;paint-order:stroke fill markers"
         id="path11-6"
         cx="4153.5464"
         cy="1063.4401"
         r="34.915325" />
      <path
         style="fill:none;fill-opacity:1;stroke:#000000;stroke-width:48.165;stroke-linecap:round;stroke-linejoin:miter;stroke-dasharray:none;stroke-opacity:1;paint-order:stroke fill markers"
         d="m 4057.6677,1153.2223 c 0,0 14.6633,-41.1476 28.819,-57.0837 14.8698,-16.74 55.9753,-37.1322 55.9753,-37.1322"
         id="path12-8" />
      <circle
         style="fill:#000000;fill-opacity:1;stroke:none;stroke-width:151.72;stroke-linecap:round;stroke-linejoin:miter;stroke-dasharray:none;stroke-opacity:1;paint-order:stroke fill markers"
         id="path11-3-8"
         cx="-3836.5374"
         cy="1062.8859"
         r="34.915325"
         transform="scale(-1,1)" />
      <path
         style="fill:none;fill-opacity:1;stroke:#000000;stroke-width:48.165;stroke-linecap:round;stroke-linejoin:miter;stroke-dasharray:none;stroke-opacity:1;paint-order:stroke fill markers"
         d="m 3932.4159,1152.6681 c 0,0 -14.6633,-41.1476 -28.819,-57.0837 -14.8698,-16.74 -55.9753,-37.1322 -55.9753,-37.1322"
         id="path12-6-4" />
    </g>
  </g>
</svg>
